<svg xmlns="http://www.w3.org/2000/svg" viewBox="0 0 161.76 36.67"><defs><style>.cls-1{font-size:30.43px;font-family:FuturaMaxiCGBold, Futura Maxi CG Bold;}.cls-2{fill:#7268ff;}</style></defs><g id="Layer_2" data-name="Layer 2"><g id="Layer_1-2" data-name="Layer 1"><text class="cls-1" transform="translate(0 26.87)">Bitm</text><text class="cls-1" transform="translate(97.1 26.87)">tion</text><path class="cls-2" d="M73.21,4.42c4.19-2.1,7.33,4.12,3.27,6C72.59,12.26,69.45,6.46,73.21,4.42Z"/><path class="cls-2" d="M73.24,4.35a3.4,3.4,0,0,1,4.7,1.76c.56,1.61.29,3.58,1.67,4.84,1.42,1.48,2.89,3.27,5.17,3.3,1.79.09,3.77,1.25,3.88,3.15.43,2.53-2.87,4.58-5,3.07-2.39-1.22-1.1-4.51-2.83-6.2a20.39,20.39,0,0,0-3.44-3.12c-1.78-.66-4.31-.35-5.33-2.24A3.23,3.23,0,0,1,73.24,4.35Z"/><path class="cls-2" d="M80.71,8.85a11.8,11.8,0,0,1,7.64-.63c4.28,1.34,7.62,5.5,7.21,9.89,0,5.75-6.29,10.48-12.15,9.18-6.55-1-10.52-8.94-6.85-14.33,1,.94,2.12,1.84,3.1,2.84-.73,3.29,1.32,7.25,5.1,7.53,4.49.65,8-4.6,5.8-8.3-1.22-2.55-4.32-3.41-7-2.95A12.72,12.72,0,0,1,80.71,8.85Z"/><path class="cls-2" d="M83.71,14.72c4.18-2.1,7.32,4.12,3.27,6S80,16.76,83.71,14.72Z"/><path class="cls-2" d="M79.44,2.51c2.09-1,3.66,2.06,1.63,3S77.56,3.53,79.44,2.51Z"/><path class="cls-2" d="M83.55,3.25c1-.52,1.83,1,.81,1.5A.85.85,0,0,1,83.55,3.25Z"/></g></g></svg>